PathFileType	4	(X/Y/Z)	1H_rest_slow_left.trc
DataRate	CameraRate	NumFrames	NumMarkers	Units	OrigDataRate	OrigDataStartFrame	OrigNumFrames
250.00	250.00	17	18	mm	250.00	3402	13604
Frame#	Time	c7	r_should	l_should	clavicle	r_upa	r_elb_l	r_elb_m	r_low	r_wri_l	r_wri_m	r_met	l_upa	l_elb_l	l_elb_m	l_low	l_wri_l	l_wri_m	l_met
	X1	Y1	Z1	X2	Y2	Z2	X3	Y3	Z3	X4	Y4	Z4	X5	Y5	Z5	X6	Y6	Z6	X7	Y7	Z7	X8	Y8	Z8	X9	Y9	Z9	X10	Y10	Z10	X11	Y11	Z11	X12	Y12	Z12	X13	Y13	Z13	X14	Y14	Z14	X15	Y15	Z15	X16	Y16	Z16	X17	Y17	Z17	X18	Y18	Z18
3402	13.60400	623.85834	1416.37256	263.23636	685.74622	1360.42065	417.78647	675.67218	1367.97522	94.07442	758.81390	1282.40210	249.16446	681.96558	1156.38245	493.75015	674.37164	1068.41748	517.73938	625.50397	1032.52808	448.98611	730.53699	894.49438	506.88928	758.90717	831.07318	479.75873	692.02509	807.80988	503.90875	793.19275	751.24982	510.52963	672.55261	1173.58643	34.00184	685.71399	1065.17712	22.96145	649.89673	1028.90564	104.59728	694.43793	890.69519	9.04136	715.94049	811.53387	27.85393	642.32819	801.63837	26.71103	721.87225	725.87750	-8.52841
3403	13.60800	623.87183	1416.37976	263.21710	685.77216	1360.43140	417.77606	675.67578	1367.96924	94.06470	758.82819	1282.41296	249.13983	681.98560	1156.39746	493.74225	674.39594	1068.42871	517.73029	625.51263	1032.53687	448.98938	730.56696	894.51123	506.86902	758.92792	831.09155	479.74176	692.04602	807.82379	503.89786	793.21381	751.26569	510.51248	672.54218	1173.58398	33.99136	685.70984	1065.17859	22.94305	649.89746	1028.90771	104.57964	694.42987	890.69543	9.01192	715.93353	811.53546	27.82214	642.32196	801.63959	26.69435	721.85767	725.87982	-8.56180
3404	13.61200	623.88391	1416.38159	263.20142	685.79303	1360.44629	417.75937	675.67432	1367.96814	94.05005	758.84174	1282.42163	249.12817	682.00348	1156.40479	493.73901	674.41772	1068.44226	517.72327	625.52533	1032.54871	448.98859	730.58575	894.53040	506.85852	758.94653	831.10809	479.73032	692.06293	807.83856	503.88998	793.22827	751.27997	510.50018	672.53418	1173.58569	33.98005	685.70612	1065.18408	22.93200	649.89075	1028.91162	104.56778	694.42505	890.69666	8.99165	715.92529	811.54205	27.79914	642.32086	801.63855	26.67479	721.84302	725.88086	-8.58719
3405	13.61600	623.89264	1416.38330	263.19141	685.80255	1360.45520	417.74365	675.67340	1367.97192	94.03432	758.85358	1282.42810	249.11340	682.01776	1156.41431	493.73410	674.42999	1068.45764	517.72424	625.54022	1032.55969	448.98700	730.60236	894.54242	506.85513	758.96075	831.12421	479.72205	692.08179	807.85126	503.89194	793.23999	751.29272	510.48721	672.53217	1173.58826	33.96837	685.70325	1065.18652	22.91928	649.88538	1028.91760	104.55620	694.42126	890.69830	8.97538	715.91388	811.54510	27.77356	642.32397	801.63556	26.65216	721.83240	725.88446	-8.60710
3406	13.62000	623.90265	1416.38354	263.18008	685.81848	1360.45947	417.72885	675.67395	1367.97119	94.01741	758.86487	1282.42908	249.09792	682.03387	1156.42383	493.73001	674.44092	1068.46631	517.72479	625.55548	1032.57373	448.97754	730.61682	894.54919	506.84988	758.97217	831.13208	479.71866	692.10284	807.85834	503.88699	793.25543	751.30170	510.47461	672.53290	1173.58679	33.95406	685.70129	1065.18274	22.90976	649.88452	1028.91516	104.54097	694.42285	890.69427	8.95757	715.90009	811.54034	27.75342	642.33020	801.63391	26.62300	721.82465	725.87823	-8.62738
3407	13.62400	623.91010	1416.37732	263.16898	685.83118	1360.45850	417.71664	675.67291	1367.97058	93.99915	758.87091	1282.42065	249.08250	682.04352	1156.42944	493.72729	674.45496	1068.47205	517.72510	625.56635	1032.58826	448.97693	730.62585	894.55029	506.84546	758.98132	831.13300	479.71750	692.11914	807.86182	503.88480	793.26898	751.30713	510.46771	672.52838	1173.58594	33.93804	685.69727	1065.17383	22.90807	649.88245	1028.90295	104.52422	694.42426	890.68713	8.94229	715.88910	811.53284	27.73668	642.33496	801.63190	26.59369	721.82056	725.86786	-8.64104
3408	13.62800	623.91827	1416.36829	263.16690	685.84705	1360.45886	417.70490	675.66742	1367.96973	93.98519	758.87372	1282.41650	249.06902	682.05017	1156.43079	493.72421	674.46173	1068.47473	517.72632	625.57422	1032.59888	448.98053	730.63208	894.55414	506.84131	758.98346	831.13348	479.71320	692.13184	807.86023	503.88300	793.28247	751.30981	510.45407	672.52753	1173.58521	33.92802	685.69794	1065.16418	22.90274	649.86975	1028.89844	104.50394	694.41937	890.68140	8.92387	715.88452	811.52979	27.71942	642.33923	801.62793	26.57013	721.81036	725.85474	-8.65487
3409	13.63200	623.92841	1416.35779	263.16113	685.86603	1360.46387	417.69614	675.66266	1367.96765	93.97186	758.87958	1282.41992	249.05055	682.05505	1156.43628	493.72141	674.47076	1068.48425	517.72839	625.58252	1032.60120	448.97498	730.63934	894.56165	506.83725	758.98840	831.13666	479.70535	692.14545	807.85077	503.87491	793.29407	751.31329	510.43845	672.52130	1173.58496	33.91738	685.70032	1065.15918	22.89084	649.85138	1028.89331	104.48640	694.41376	890.67816	8.89965	715.87921	811.52734	27.70384	642.33722	801.62219	26.54594	721.80164	725.85004	-8.68128
3410	13.63600	623.93646	1416.35144	263.15195	685.87958	1360.46411	417.67358	675.65503	1367.96362	93.95528	758.88562	1282.42395	249.03427	682.06323	1156.44531	493.70938	674.47937	1068.49866	517.72485	625.58740	1032.60876	448.97192	730.65253	894.57312	506.83005	758.99731	831.14319	479.69800	692.16406	807.85291	503.86859	793.30249	751.32404	510.42862	672.50934	1173.58179	33.90369	685.70087	1065.16406	22.87566	649.83417	1028.89026	104.47237	694.40857	890.67902	8.87525	715.87659	811.52692	27.68090	642.33984	801.61670	26.52678	721.79456	725.84644	-8.70356
3411	13.64000	623.94946	1416.34961	263.13980	685.89880	1360.46643	417.65244	675.65179	1367.96191	93.94385	758.89612	1282.43372	249.01756	682.08044	1156.45471	493.69711	674.49823	1068.50427	517.71722	625.59619	1032.61023	448.96762	730.67285	894.58405	506.81616	759.00964	831.16150	479.69186	692.18805	807.85602	503.86221	793.31696	751.33441	510.41705	672.50867	1173.57874	33.88682	685.70325	1065.16443	22.85664	649.83002	1028.88599	104.44972	694.40869	890.68225	8.84555	715.87860	811.52521	27.65355	642.34637	801.61273	26.49858	721.79150	725.84753	-8.73210
3412	13.64400	623.96307	1416.34875	263.11798	685.92419	1360.46912	417.63776	675.65210	1367.96021	93.92892	758.91119	1282.44641	248.99492	682.10199	1156.47058	493.69247	674.52063	1068.51599	517.71332	625.61285	1032.60901	448.96500	730.69275	894.59357	506.79968	759.02832	831.17590	479.67599	692.20850	807.85754	503.84833	793.33228	751.33936	510.40475	672.50903	1173.57617	33.86693	685.70721	1065.16882	22.83193	649.83691	1028.87878	104.43062	694.41449	890.68921	8.80686	715.88538	811.53729	27.61939	642.35565	801.60986	26.46880	721.79462	725.84161	-8.76210
3413	13.64800	623.97467	1416.35107	263.09073	685.94867	1360.47754	417.62830	675.65161	1367.95581	93.91629	758.92975	1282.45642	248.96652	682.12384	1156.48206	493.68787	674.53448	1068.52856	517.70599	625.63611	1032.61072	448.95789	730.71252	894.60675	506.79065	759.04755	831.18573	479.65784	692.22504	807.86292	503.83170	793.34326	751.34491	510.39792	672.50708	1173.57690	33.84741	685.71014	1065.17529	22.80500	649.83911	1028.87756	104.41354	694.41968	890.69592	8.77290	715.89496	811.54578	27.59035	642.36621	801.60321	26.44318	721.79535	725.84827	-8.79116
3414	13.65200	623.98615	1416.35352	263.07510	685.96851	1360.49109	417.61469	675.65112	1367.95068	93.90369	758.94281	1282.46619	248.94479	682.14484	1156.49036	493.68274	674.55658	1068.53943	517.70050	625.64844	1032.61816	448.95502	730.72552	894.61713	506.78690	759.06171	831.19128	479.64676	692.24091	807.87439	503.82532	793.34991	751.34802	510.38928	672.50360	1173.58252	33.83065	685.71100	1065.18262	22.77921	649.84589	1028.87805	104.39601	694.42505	890.70441	8.74030	715.90021	811.54626	27.56226	642.37341	801.59735	26.41884	721.79303	725.86255	-8.81990
3415	13.65600	623.99780	1416.35388	263.05981	685.99005	1360.49561	417.60336	675.65582	1367.94714	93.89310	758.95288	1282.47327	248.92918	682.16937	1156.49316	493.67648	674.58698	1068.54529	517.69287	625.66187	1032.62793	448.95389	730.73663	894.61957	506.78360	759.07288	831.18872	479.63715	692.25214	807.87689	503.82663	793.35413	751.35095	510.38422	672.49835	1173.58276	33.80922	685.70734	1065.18591	22.75356	649.85168	1028.87805	104.37428	694.42535	890.71112	8.70408	715.89825	811.55170	27.52435	642.37897	801.59222	26.39442	721.79401	725.86560	-8.84610
3416	13.66000	624.01129	1416.34778	263.04846	686.00964	1360.49817	417.59546	675.65356	1367.94141	93.88213	758.96277	1282.47021	248.91356	682.19232	1156.49719	493.66803	674.60681	1068.55054	517.68250	625.68286	1032.63037	448.95172	730.74280	894.62140	506.78122	759.07617	831.18616	479.63898	692.26147	807.87396	503.82584	793.35150	751.34723	510.38492	672.49323	1173.58228	33.78484	685.69739	1065.18835	22.72071	649.84045	1028.87183	104.34864	694.41858	890.71106	8.67201	715.89813	811.55835	27.49312	642.38672	801.58673	26.36477	721.79297	725.86322	-8.86883
3417	13.66400	624.02008	1416.33484	263.04208	686.02966	1360.50012	417.58749	675.65558	1367.93591	93.87356	758.97327	1282.46790	248.89587	682.21234	1156.49817	493.66547	674.62610	1068.55225	517.67749	625.70142	1032.63025	448.94879	730.74542	894.61945	506.78177	759.07245	831.18451	479.64529	692.27222	807.87231	503.82614	793.35150	751.34576	510.38699	672.48242	1173.58508	33.76350	685.68530	1065.18787	22.69598	649.82635	1028.85901	104.32065	694.41083	890.70831	8.64550	715.89124	811.55292	27.47412	642.39313	801.57959	26.33512	721.79285	725.85779	-8.89234
3418	13.66800	624.02606	1416.32410	263.04266	686.04578	1360.50391	417.57745	675.65326	1367.93372	93.86832	758.97852	1282.46167	248.88885	682.22418	1156.50159	493.65948	674.64124	1068.55554	517.67816	625.71130	1032.64160	448.94720	730.75366	894.61566	506.77942	759.06873	831.17999	479.65247	692.28040	807.86432	503.83252	793.34894	751.33472	510.38635	672.47174	1173.58521	33.74365	685.66998	1065.18506	22.67136	649.81146	1028.85754	104.29987	694.40149	890.70660	8.62679	715.88440	811.54980	27.45717	642.39514	801.57336	26.30849	721.79205	725.85248	-8.90821
